<svg xmlns="http://www.w3.org/2000/svg" version="1.1" xmlns:xlink="http://www.w3.org/1999/xlink" xmlns:svgjs="http://svgjs.com/svgjs" width="1440" height="560" preserveAspectRatio="none" viewBox="0 0 1440 560"><g mask="url(&quot;#SvgjsMask1014&quot;)" fill="none"><rect width="1440" height="560" x="0" y="0" fill="rgba(26, 79, 67, 1)"></rect><path d="M720 747.3C836.72 745.73 927.74 651.65 999.99 559.99 1062.96 480.09 1083.77 381.63 1088.32 280 1093.18 171.81 1101 52.1 1026.34-26.34 950.66-105.83 829.75-107.67 720-106.92 611.23-106.21 501.28-91.89 417.74-22.26 326.45 53.83 252.84 161.2 255.8 280 258.69 396.93 349.98 484.61 432.39 567.61 515.22 650.97 602.5 748.86 720 747.3" fill="rgba(26, 111, 92, 1)"></path><path d="M720 582.37C795.53 581.36 854.42 520.48 901.17 461.17 941.91 409.47 955.38 345.76 958.33 280 961.47 210 966.53 132.53 918.22 81.78 869.25 30.34 791.02 29.16 720 29.64 649.62 30.1 578.47 39.36 524.42 84.42 465.35 133.66 417.72 203.13 419.63 280 421.5 355.66 480.57 412.4 533.9 466.1 587.49 520.04 643.97 583.38 720 582.37" fill="rgba(38, 144, 27, 1)"></path><path d="M720 417.44C754.33 416.98 781.1 389.31 802.35 362.35 820.87 338.85 826.99 309.89 828.33 280 829.76 248.18 832.06 212.97 810.1 189.9 787.84 166.52 752.28 165.98 720 166.2 688.01 166.41 655.67 170.62 631.1 191.1 604.25 213.48 582.6 245.06 583.47 280 584.32 314.39 611.17 340.18 635.41 364.59 659.77 389.11 685.44 417.9 720 417.44" fill="rgba(81, 188, 88, 1)"></path></g><defs><mask id="SvgjsMask1014"><rect width="1440" height="560" fill="#ffffff"></rect></mask></defs></svg>