<svg xmlns="http://www.w3.org/2000/svg" version="1.1" xmlns:xlink="http://www.w3.org/1999/xlink" xmlns:svgjs="http://svgjs.com/svgjs" width="1440" height="560" preserveAspectRatio="none" viewBox="0 0 1440 560"><g mask="url(&quot;#SvgjsMask1007&quot;)" fill="none"><rect width="1440" height="560" x="0" y="0" fill="rgba(81, 188, 88, 1)"></rect><path d="M 0,115 C 57.6,141 172.8,253 288,245 C 403.2,237 460.8,79.4 576,75 C 691.2,70.6 748.8,230.6 864,223 C 979.2,215.4 1036.8,31.4 1152,37 C 1267.2,42.6 1382.4,208.2 1440,251L1440 560L0 560z" fill="rgba(38, 144, 27, 1)"></path><path d="M 0,298 C 96,336 288,470.4 480,488 C 672,505.6 768,376.4 960,386 C 1152,395.6 1344,506 1440,536L1440 560L0 560z" fill="rgba(26, 79, 67, 1)"></path></g><defs><mask id="SvgjsMask1007"><rect width="1440" height="560" fill="#ffffff"></rect></mask></defs></svg>