<svg xmlns="http://www.w3.org/2000/svg" version="1.1" xmlns:xlink="http://www.w3.org/1999/xlink" xmlns:svgjs="http://svgjs.com/svgjs" width="1440" height="560" preserveAspectRatio="none" viewBox="0 0 1440 560"><g mask="url(&quot;#SvgjsMask1132&quot;)" fill="none"><rect width="1440" height="560" x="0" y="0" fill="url(#SvgjsLinearGradient1133)"></rect><path d="M -195.60083150761199,517 C -99.6,436.6 92.4,159 284.399168492388,115 C 476.4,71 572.4,311.8 764.3991684923881,297 C 956.4,282.2 1052.4,28.4 1244.399168492388,41 C 1436.4,53.6 1685.28,317.4 1724.399168492388,360 C 1763.52,402.6 1496.88,275.2 1440,254" stroke="rgba(26, 111, 92, 1)" stroke-width="2"></path><path d="M -556.5133200529913,181 C -460.51,203.4 -268.51,306 -76.51332005299128,293 C 115.49,280 211.49,73.2 403.4866799470087,116 C 595.49,158.8 691.49,497.8 883.4866799470087,507 C 1075.49,516.2 1252.18,198.8 1363.4866799470087,162 C 1474.79,125.2 1424.7,290.8 1440,323" stroke="rgba(26, 111, 92, 1)" stroke-width="2"></path><path d="M -301.9219462057504,464 C -205.92,403.6 -13.92,179.8 178.07805379424963,162 C 370.08,144.2 466.08,358.6 658.0780537942496,375 C 850.08,391.4 946.08,216.4 1138.0780537942496,244 C 1330.08,271.6 1557.69,554.4 1618.0780537942496,513 C 1678.46,471.6 1475.62,132.2 1440,37" stroke="rgba(26, 111, 92, 1)" stroke-width="2"></path><path d="M -17.91022047411741,259 C 78.09,278.4 270.09,385.6 462.0897795258826,356 C 654.09,326.4 750.09,100 942.0897795258826,111 C 1134.09,122 1230.09,389.4 1422.0897795258825,411 C 1614.09,432.6 1898.51,204.6 1902.0897795258825,219 C 1905.67,233.4 1532.42,430.2 1440,483" stroke="rgba(26, 111, 92, 1)" stroke-width="2"></path><path d="M -212.79939922718302,383 C -116.8,337 75.2,157.4 267.200600772817,153 C 459.2,148.6 555.2,367.2 747.200600772817,361 C 939.2,354.8 1035.2,90.8 1227.2006007728169,122 C 1419.2,153.2 1664.64,532.6 1707.2006007728169,517 C 1749.76,501.4 1493.44,138.6 1440,44" stroke="rgba(26, 111, 92, 1)" stroke-width="2"></path><path d="M -10.14403168223663,524 C 85.86,471.6 277.86,300.4 469.85596831776337,262 C 661.86,223.6 757.86,338.2 949.8559683177634,332 C 1141.86,325.8 1237.86,195.8 1429.8559683177634,231 C 1621.86,266.2 1907.83,525.4 1909.8559683177634,508 C 1911.88,490.6 1533.97,216.8 1440,144" stroke="rgba(26, 111, 92, 1)" stroke-width="2"></path><path d="M -839.5733313855264,382 C -743.57,334.2 -551.57,125 -359.5733313855265,143 C -167.57,161 -71.57,471.6 120.4266686144735,472 C 312.43,472.4 408.43,182 600.4266686144736,145 C 792.43,108 912.51,294.2 1080.4266686144736,287 C 1248.34,279.8 1368.09,144.6 1440,109" stroke="rgba(26, 111, 92, 1)" stroke-width="2"></path><path d="M -171.4844756614483,54 C -75.48,99.8 116.52,266.4 308.5155243385517,283 C 500.52,299.6 596.52,101.8 788.5155243385517,137 C 980.52,172.2 1076.52,431.6 1268.5155243385516,459 C 1460.52,486.4 1714.22,264 1748.5155243385516,274 C 1782.81,284 1501.7,462 1440,509" stroke="rgba(26, 111, 92, 1)" stroke-width="2"></path></g><defs><mask id="SvgjsMask1132"><rect width="1440" height="560" fill="#ffffff"></rect></mask><linearGradient x1="15.28%" y1="-39.29%" x2="84.72%" y2="139.29%" gradientUnits="userSpaceOnUse" id="SvgjsLinearGradient1133"><stop stop-color="#0e2a47" offset="0"></stop><stop stop-color="rgba(81, 188, 88, 1)" offset="0.41"></stop><stop stop-color="rgba(81, 188, 88, 1)" offset="0.63"></stop><stop stop-color="rgba(81, 188, 88, 1)" offset="1"></stop></linearGradient></defs></svg>